<svg width="47" height="46" viewBox="0 0 47 46" fill="none" xmlns="http://www.w3.org/2000/svg">
<path fill-rule="evenodd" clip-rule="evenodd" d="M34.5 0C36.8462 0 39.0525 0.598489 40.9748 1.65113L35.7031 7.11112C35.3132 7.03815 34.911 7 34.5 7H13.5C9.91015 7 7 9.91015 7 13.5V34.5C7 35.2018 7.11124 35.8777 7.31704 36.5109L2.16941 41.8424C0.797089 39.729 0 37.2076 0 34.5V13.5C0 6.04416 6.04416 0 13.5 0H34.5ZM11.9748 45.3424C9.62864 45.3424 7.42226 44.7439 5.50002 43.6913L10.7717 38.2313C11.1616 38.3042 11.5637 38.3424 11.9748 38.3424L32.9748 38.3424C36.5646 38.3424 39.4748 35.4323 39.4748 31.8424L39.4748 10.8424C39.4748 10.1406 39.3636 9.4647 39.1578 8.83148L44.3054 3.50001C45.6777 5.6134 46.4748 8.13482 46.4748 10.8424L46.4748 31.8424C46.4748 39.2983 40.4306 45.3424 32.9748 45.3424L11.9748 45.3424Z" fill="url(#paint0_linear_405_3308)"/>
<path d="M15.333 32.5L11.121 13.6H15.9L18.195 25.264L21.489 13.6H25.836L29.13 25.264L31.425 13.6H36.042L31.83 32.5H26.916L23.595 20.458L20.247 32.5H15.333Z" fill="#82AEF0"/>
<defs>
<linearGradient id="paint0_linear_405_3308" x1="4" y1="4" x2="40.5" y2="42" gradientUnits="userSpaceOnUse">
<stop stop-color="#6B74F3"/>
<stop offset="1" stop-color="#7CC8F5"/>
</linearGradient>
</defs>
</svg>
